<?xml version="1.0" encoding="utf-8"?>
<!-- Generator: Adobe Illustrator 16.0.0, SVG Export Plug-In . SVG Version: 6.00 Build 0)  -->
<!DOCTYPE svg PUBLIC "-//W3C//DTD SVG 1.1//EN" "http://www.w3.org/Graphics/SVG/1.1/DTD/svg11.dtd">
<svg version="1.1" id="Camada_1" xmlns="http://www.w3.org/2000/svg" xmlns:xlink="http://www.w3.org/1999/xlink" x="0px" y="0px"
	 width="100px" height="100px" viewBox="0 0 100 100" enable-background="new 0 0 100 100" xml:space="preserve">
<g>
	<path fill="#00A096" d="M16.548,86.171c2.534-9.351,2.64-23.003-1.744-30.502c-3.715-6.352-7.076-22.254-3.374-35.112
		C4.905,28.819,1,39.246,1,50.591C1,64.653,6.989,77.312,16.548,86.171z"/>
	<path fill="#00A096" d="M53.278,2.237c11.566,2.53,19.387,8.894,22.388,13.651c1.822,2.317,8.996,19.124,6.774,25.28
		c-0.496,1.374-3.438,4.731-3.438,4.731c-2.829,3.929,6.979,9.167,7.078,15.109c0.1,5.939-5.258,4.934-5.258,4.934
		s0.203,1.408,1.819,4.532c1.618,3.121-1.516,4.935-1.516,4.935c1.516,6.142-2.832,6.848-3.237,6.947
		c-0.401,0.103-2.021,1.813-2.021,1.813c-1.011,6.344-7.178,9.469-9.908,9.366c-2.729-0.101-8.39-2.618-8.39-2.618l3.485,6.793
		c21.218-5.18,36.971-24.305,36.971-47.12C98.027,25.066,78.31,4.16,53.278,2.237z"/>
</g>
</svg>
