<?xml version="1.0" encoding="utf-8"?>
<!-- Generator: Adobe Illustrator 16.0.0, SVG Export Plug-In . SVG Version: 6.00 Build 0)  -->
<!DOCTYPE svg PUBLIC "-//W3C//DTD SVG 1.1//EN" "http://www.w3.org/Graphics/SVG/1.1/DTD/svg11.dtd">
<svg version="1.1" id="Camada_1" xmlns="http://www.w3.org/2000/svg" xmlns:xlink="http://www.w3.org/1999/xlink" x="0px" y="0px"
	 width="100px" height="100px" viewBox="0 0 100 100" enable-background="new 0 0 100 100" xml:space="preserve">
<circle cx="49.494" cy="49.451" r="47.171"/>
<g>
	<path fill="#00A096" d="M17.442,83.855c2.462-9.092,2.567-22.367-1.697-29.658c-3.612-6.176-6.879-21.64-3.28-34.142
		C6.12,28.089,2.323,38.228,2.323,49.259C2.323,62.934,8.147,75.242,17.442,83.855z"/>
	<path fill="#00A096" d="M53.155,2.243c11.246,2.459,18.852,8.648,21.77,13.274c1.771,2.254,8.746,18.595,6.588,24.582
		c-0.482,1.335-3.343,4.6-3.343,4.6c-2.751,3.82,6.784,8.913,6.881,14.692c0.098,5.773-5.112,4.797-5.112,4.797
		s0.198,1.367,1.77,4.404c1.572,3.037-1.475,4.799-1.475,4.799c1.475,5.973-2.753,6.658-3.146,6.754
		c-0.392,0.102-1.966,1.764-1.966,1.764c-0.981,6.17-6.979,9.209-9.635,9.109c-2.653-0.1-8.156-2.547-8.156-2.547l3.39,6.605
		c20.63-5.039,35.947-23.633,35.947-45.817C96.667,24.44,77.495,4.112,53.155,2.243z"/>
</g>
</svg>
