<?xml version="1.0" encoding="utf-8"?>
<!-- Generator: Adobe Illustrator 16.0.0, SVG Export Plug-In . SVG Version: 6.00 Build 0)  -->
<!DOCTYPE svg PUBLIC "-//W3C//DTD SVG 1.1//EN" "http://www.w3.org/Graphics/SVG/1.1/DTD/svg11.dtd">
<svg version="1.1" id="Camada_1" xmlns="http://www.w3.org/2000/svg" xmlns:xlink="http://www.w3.org/1999/xlink" x="0px" y="0px"
	 width="100px" height="100px" viewBox="0 0 100 100" enable-background="new 0 0 100 100" xml:space="preserve">
<g>
	<path fill="#00A096" d="M21.237,77.688c2.238-8.262,2.333-20.323-1.542-26.95c-3.282-5.611-6.251-19.662-2.981-31.023
		C10.95,27.016,7.5,36.229,7.5,46.252C7.5,58.677,12.791,69.86,21.237,77.688z"/>
	<path fill="#00A096" d="M53.688,3.529c10.22,2.235,17.129,7.858,19.781,12.062c1.609,2.047,7.948,16.896,5.986,22.336
		c-0.438,1.213-3.039,4.181-3.039,4.181c-2.498,3.471,6.167,8.099,6.256,13.348c0.087,5.249-4.646,4.36-4.646,4.36
		s0.181,1.244,1.608,4.003c1.429,2.759-1.34,4.36-1.34,4.36c1.34,5.428-2.502,6.05-2.859,6.139
		c-0.356,0.092-1.786,1.604-1.786,1.604c-0.893,5.604-6.343,8.365-8.753,8.274c-2.412-0.089-7.414-2.313-7.414-2.313l3.08,6.002
		C79.31,83.308,93.228,66.41,93.228,46.252C93.228,23.699,75.806,5.229,53.688,3.529z"/>
</g>
<g>
	<path fill="#F29400" d="M29.284,93.069c-0.448,0.067-0.946,0.102-1.493,0.102c-0.838,0-1.49-0.102-1.955-0.307
		c-0.464-0.205-0.805-0.489-1.018-0.853c-0.213-0.364-0.342-0.792-0.389-1.285c-0.045-0.492-0.068-1.034-0.068-1.625v-9.188
		c0-0.605-0.004-1.189-0.011-1.75c-0.008-0.56-0.05-1.007-0.125-1.342l3.933-0.659c0.061,0.35,0.106,0.772,0.138,1.272
		c0.029,0.501,0.045,1.056,0.045,1.66v8.71c0,0.53,0.008,0.961,0.022,1.296c0.015,0.332,0.057,0.599,0.125,0.796
		c0.068,0.196,0.163,0.333,0.285,0.409c0.12,0.075,0.295,0.114,0.522,0.114c0.137,0,0.273-0.024,0.409-0.069l0.637,2.456
		C30.083,92.913,29.73,93,29.284,93.069z"/>
	<path fill="#F29400" d="M41.071,89.681c-0.319,0.812-0.742,1.479-1.267,2.002c-0.525,0.522-1.127,0.901-1.805,1.137
		c-0.677,0.235-1.367,0.352-2.065,0.352c-1.705,0-3.04-0.527-4.008-1.58c-0.967-1.055-1.449-2.566-1.449-4.536
		c0-0.91,0.132-1.747,0.4-2.513c0.265-0.766,0.646-1.421,1.142-1.967c0.493-0.547,1.09-0.97,1.792-1.273
		c0.7-0.303,1.484-0.454,2.352-0.454c0.73,0,1.419,0.109,2.065,0.328c0.647,0.221,1.219,0.566,1.713,1.034
		c0.495,0.472,0.887,1.079,1.177,1.82c0.289,0.743,0.434,1.637,0.434,2.684C41.551,87.88,41.391,88.869,41.071,89.681z
		 M37.164,85.127c-0.046-0.392-0.116-0.702-0.213-0.931c-0.096-0.229-0.222-0.391-0.378-0.482c-0.157-0.092-0.347-0.139-0.57-0.139
		c-0.208,0-0.387,0.047-0.536,0.139c-0.149,0.092-0.271,0.271-0.368,0.539c-0.096,0.267-0.171,0.632-0.223,1.091
		c-0.052,0.46-0.078,1.057-0.078,1.792c0,1.148,0.067,1.986,0.201,2.515s0.476,0.791,1.026,0.791c0.461,0,0.778-0.286,0.95-0.859
		c0.171-0.574,0.256-1.566,0.256-2.974C37.23,86.01,37.208,85.516,37.164,85.127z"/>
	<path fill="#F29400" d="M53.965,83.654c-0.35,0.1-0.66,0.103-0.934,0.013c0.091,0.075,0.209,0.245,0.354,0.511
		c0.146,0.266,0.217,0.572,0.217,0.922c0,0.56-0.131,1.063-0.391,1.511c-0.259,0.447-0.613,0.827-1.063,1.138
		c-0.452,0.31-0.971,0.55-1.558,0.716c-0.588,0.167-1.203,0.25-1.844,0.25h-1.284c-0.076,0.074-0.136,0.141-0.182,0.2
		c-0.045,0.058-0.069,0.124-0.069,0.198c0,0.118,0.098,0.205,0.296,0.265c0.196,0.058,0.446,0.088,0.751,0.088h1.704
		c1.41,0,2.478,0.305,3.208,0.914c0.728,0.611,1.089,1.443,1.089,2.497c0,0.668-0.125,1.281-0.373,1.841
		c-0.252,0.561-0.637,1.046-1.16,1.454c-0.521,0.411-1.186,0.732-1.99,0.968s-1.751,0.353-2.842,0.353
		c-0.971,0-1.793-0.088-2.468-0.262c-0.674-0.174-1.228-0.405-1.659-0.694c-0.432-0.287-0.747-0.616-0.944-0.987
		c-0.198-0.373-0.296-0.756-0.296-1.149c0-0.258,0.015-0.521,0.045-0.795c0.031-0.272,0.067-0.516,0.114-0.728h3.547
		c-0.015,0.057-0.022,0.117-0.022,0.176v0.509c0,0.651,0.66,0.976,1.978,0.976c0.698,0,1.222-0.124,1.569-0.369
		c0.348-0.244,0.523-0.539,0.523-0.88c0-0.208-0.034-0.374-0.102-0.501c-0.067-0.127-0.181-0.228-0.341-0.301
		c-0.16-0.073-0.376-0.123-0.648-0.146c-0.274-0.021-0.622-0.032-1.046-0.032h-2.068c-0.956,0-1.706-0.193-2.251-0.58
		c-0.546-0.388-0.819-0.952-0.819-1.694c0-0.41,0.121-0.822,0.363-1.238c0.244-0.418,0.606-0.731,1.091-0.944
		c-1.121-0.576-1.682-1.568-1.682-2.979c0-0.606,0.125-1.158,0.377-1.659c0.25-0.5,0.612-0.924,1.083-1.272
		c0.474-0.35,1.04-0.619,1.702-0.809c0.663-0.188,1.404-0.283,2.227-0.283c0.502,0,0.917,0.025,1.245,0.079
		c0.327,0.053,0.616,0.11,0.867,0.17c0.251,0.061,0.483,0.117,0.696,0.171c0.213,0.053,0.458,0.078,0.732,0.078
		c0.426,0,0.807-0.074,1.141-0.227c0.336-0.149,0.632-0.332,0.891-0.545l1.068,2.751C54.595,83.447,54.313,83.558,53.965,83.654z
		 M48.122,83.575c-0.909,0-1.364,0.448-1.364,1.342c0,0.865,0.447,1.297,1.342,1.297c0.438,0,0.784-0.103,1.035-0.308
		c0.25-0.204,0.375-0.535,0.375-0.989C49.509,84.023,49.046,83.575,48.122,83.575z"/>
</g>
</svg>
